<?xml version="1.0" standalone="no"?><svg xmlns="http://www.w3.org/2000/svg" viewBox="0 0 1440 320"><path fill="#FAF7F3" fill-opacity="1" d="M0,0L7.3,32C14.5,64,29,128,44,138.7C58.2,149,73,107,87,112C101.8,117,116,171,131,165.3C145.5,160,160,96,175,85.3C189.1,75,204,117,218,112C232.7,107,247,53,262,26.7C276.4,0,291,0,305,26.7C320,53,335,107,349,149.3C363.6,192,378,224,393,229.3C407.3,235,422,213,436,208C450.9,203,465,213,480,202.7C494.5,192,509,160,524,149.3C538.2,139,553,149,567,160C581.8,171,596,181,611,181.3C625.5,181,640,171,655,170.7C669.1,171,684,181,698,202.7C712.7,224,727,256,742,240C756.4,224,771,160,785,112C800,64,815,32,829,53.3C843.6,75,858,149,873,197.3C887.3,245,902,267,916,234.7C930.9,203,945,117,960,112C974.5,107,989,181,1004,213.3C1018.2,245,1033,235,1047,240C1061.8,245,1076,267,1091,240C1105.5,213,1120,139,1135,90.7C1149.1,43,1164,21,1178,37.3C1192.7,53,1207,107,1222,144C1236.4,181,1251,203,1265,192C1280,181,1295,139,1309,122.7C1323.6,107,1338,117,1353,144C1367.3,171,1382,213,1396,208C1410.9,203,1425,149,1433,122.7L1440,96L1440,320L1432.7,320C1425.5,320,1411,320,1396,320C1381.8,320,1367,320,1353,320C1338.2,320,1324,320,1309,320C1294.5,320,1280,320,1265,320C1250.9,320,1236,320,1222,320C1207.3,320,1193,320,1178,320C1163.6,320,1149,320,1135,320C1120,320,1105,320,1091,320C1076.4,320,1062,320,1047,320C1032.7,320,1018,320,1004,320C989.1,320,975,320,960,320C945.5,320,931,320,916,320C901.8,320,887,320,873,320C858.2,320,844,320,829,320C814.5,320,800,320,785,320C770.9,320,756,320,742,320C727.3,320,713,320,698,320C683.6,320,669,320,655,320C640,320,625,320,611,320C596.4,320,582,320,567,320C552.7,320,538,320,524,320C509.1,320,495,320,480,320C465.5,320,451,320,436,320C421.8,320,407,320,393,320C378.2,320,364,320,349,320C334.5,320,320,320,305,320C290.9,320,276,320,262,320C247.3,320,233,320,218,320C203.6,320,189,320,175,320C160,320,145,320,131,320C116.4,320,102,320,87,320C72.7,320,58,320,44,320C29.1,320,15,320,7,320L0,320Z"></path></svg>